<svg xmlns="http://www.w3.org/2000/svg">
  <symbol id="cube" viewBox="0 0 96 96">
    <path d="M44 77.7V50.3L20 36.4V63.8L44 77.7ZM52 77.7L76 63.8V36.4L52 50.3V77.7ZM48 43.4L71.7 29.7L48 16L24.3 29.7L48 43.4ZM16 70.8C14.7333 70.0667 13.75 69.1 13.05 67.9C12.35 66.7 12 65.3667 12 63.9V32.1C12 30.6333 12.35 29.3 13.05 28.1C13.75 26.9 14.7333 25.9333 16 25.2L44 9.1C45.2667 8.36667 46.6 8 48 8C49.4 8 50.7333 8.36667 52 9.1L80 25.2C81.2667 25.9333 82.25 26.9 82.95 28.1C83.65 29.3 84 30.6333 84 32.1V63.9C84 65.3667 83.65 66.7 82.95 67.9C82.25 69.1 81.2667 70.0667 80 70.8L52 86.9C50.7333 87.6333 49.4 88 48 88C46.6 88 45.2667 87.6333 44 86.9L16 70.8Z"/>
  </symbol>
  <symbol id="commit" viewBox="0 0 96 96">
    <path d="M48 84C38.8 84 30.7833 80.95 23.95 74.85C17.1167 68.75 13.2 61.1333 12.2 52H20.4C21.3333 58.9333 24.4167 64.6667 29.65 69.2C34.8833 73.7333 41 76 48 76C55.8 76 62.4167 73.2833 67.85 67.85C73.2833 62.4167 76 55.8 76 48C76 40.2 73.2833 33.5833 67.85 28.15C62.4167 22.7167 55.8 20 48 20C43.4 20 39.1 21.0667 35.1 23.2C31.1 25.3333 27.7333 28.2667 25 32H36V40H12V16H20V25.4C23.4 21.1333 27.55 17.8333 32.45 15.5C37.35 13.1667 42.5333 12 48 12C53 12 57.6833 12.95 62.05 14.85C66.4167 16.75 70.2167 19.3167 73.45 22.55C76.6833 25.7833 79.25 29.5833 81.15 33.95C83.05 38.3167 84 43 84 48C84 53 83.05 57.6833 81.15 62.05C79.25 66.4167 76.6833 70.2167 73.45 73.45C70.2167 76.6833 66.4167 79.25 62.05 81.15C57.6833 83.05 53 84 48 84ZM59.2 64.8L44 49.6V28H52V46.4L64.8 59.2L59.2 64.8Z" />
  </symbol>
  <symbol id="commit_30" viewBox="0 0 96 96">
    <path d="M48 88C43 88 38.3167 87.05 33.95 85.15C29.5833 83.25 25.7833 80.6833 22.55 77.45C19.3167 74.2167 16.75 70.4167 14.85 66.05C12.95 61.6833 12 57 12 52H20C20 59.8 22.7167 66.4167 28.15 71.85C33.5833 77.2833 40.2 80 48 80C55.8 80 62.4167 77.2833 67.85 71.85C73.2833 66.4167 76 59.8 76 52C76 44.2 73.2833 37.5833 67.85 32.15C62.4167 26.7167 55.8 24 48 24H47.4L53.6 30.2L48 36L32 20L48 4L53.6 9.8L47.4 16H48C53 16 57.6833 16.95 62.05 18.85C66.4167 20.75 70.2167 23.3167 73.45 26.55C76.6833 29.7833 79.25 33.5833 81.15 37.95C83.05 42.3167 84 47 84 52C84 57 83.05 61.6833 81.15 66.05C79.25 70.4167 76.6833 74.2167 73.45 77.45C70.2167 80.6833 66.4167 83.25 62.05 85.15C57.6833 87.05 53 88 48 88ZM30 64V58H40V54H34V50H40V46H30V40H42C43.1333 40 44.0833 40.3833 44.85 41.15C45.6167 41.9167 46 42.8667 46 44V60C46 61.1333 45.6167 62.0833 44.85 62.85C44.0833 63.6167 43.1333 64 42 64H30ZM54 64C52.8667 64 51.9167 63.6167 51.15 62.85C50.3833 62.0833 50 61.1333 50 60V44C50 42.8667 50.3833 41.9167 51.15 41.15C51.9167 40.3833 52.8667 40 54 40H62C63.1333 40 64.0833 40.3833 64.85 41.15C65.6167 41.9167 66 42.8667 66 44V60C66 61.1333 65.6167 62.0833 64.85 62.85C64.0833 63.6167 63.1333 64 62 64H54ZM56 58H60V46H56V58Z" />
  </symbol>
  <symbol id="storages" viewBox="0 0 96 96">
    <path d="M56 76C57.1333 76 58.0833 75.6167 58.85 74.85C59.6167 74.0833 60 73.1333 60 72C60 70.8667 59.6167 69.9167 58.85 69.15C58.0833 68.3833 57.1333 68 56 68C54.8667 68 53.9167 68.3833 53.15 69.15C52.3833 69.9167 52 70.8667 52 72C52 73.1333 52.3833 74.0833 53.15 74.85C53.9167 75.6167 54.8667 76 56 76ZM68 76C69.1333 76 70.0833 75.6167 70.85 74.85C71.6167 74.0833 72 73.1333 72 72C72 70.8667 71.6167 69.9167 70.85 69.15C70.0833 68.3833 69.1333 68 68 68C66.8667 68 65.9167 68.3833 65.15 69.15C64.3833 69.9167 64 70.8667 64 72C64 73.1333 64.3833 74.0833 65.15 74.85C65.9167 75.6167 66.8667 76 68 76ZM12 52V16C12 13.8 12.7833 11.9167 14.35 10.35C15.9167 8.78333 17.8 8 20 8H76C78.2 8 80.0833 8.78333 81.65 10.35C83.2167 11.9167 84 13.8 84 16V52H76V16H20V52H12ZM20 60V80H76V60H20ZM20 88C17.8 88 15.9167 87.2167 14.35 85.65C12.7833 84.0833 12 82.2 12 80V52H84V80C84 82.2 83.2167 84.0833 81.65 85.65C80.0833 87.2167 78.2 88 76 88H20Z" />
  </symbol>
</svg>